<?xml version="1.0" encoding="UTF-8" standalone="no"?>
<svg
   version="1.0"
   width="267.31052pt"
   height="206.5295pt"
   viewBox="0 0 267.31052 206.5295"
   preserveAspectRatio="xMidYMid"
   id="svg7934"
   sodipodi:docname="lable_cofe_10.svg"
   inkscape:export-filename="lable_cofe_10.svg"
   inkscape:export-xdpi="96"
   inkscape:export-ydpi="96"
   inkscape:version="1.2.1 (9c6d41e410, 2022-07-14)"
   xmlns:inkscape="http://www.inkscape.org/namespaces/inkscape"
   xmlns:sodipodi="http://sodipodi.sourceforge.net/DTD/sodipodi-0.dtd"
   xmlns="http://www.w3.org/2000/svg"
   xmlns:svg="http://www.w3.org/2000/svg">
  <defs
     id="defs7938" />
  <sodipodi:namedview
     id="namedview7936"
     pagecolor="#ffffff"
     bordercolor="#666666"
     borderopacity="1.0"
     inkscape:showpageshadow="2"
     inkscape:pageopacity="0.0"
     inkscape:pagecheckerboard="0"
     inkscape:deskcolor="#d1d1d1"
     inkscape:document-units="pt"
     showgrid="false"
     inkscape:zoom="1.2459184"
     inkscape:cx="396.89599"
     inkscape:cy="-15.651106"
     inkscape:window-width="1920"
     inkscape:window-height="1001"
     inkscape:window-x="-9"
     inkscape:window-y="-9"
     inkscape:window-maximized="1"
     inkscape:current-layer="svg7934" />
  <g
     transform="matrix(0.1,0,0,-0.1,-22.425567,229.73033)"
     fill="#000000"
     stroke="none"
     id="g7932"
     style="fill:#552200">
    <path
       d="m 1420,2291 c -349,-51 -643,-267 -796,-587 -40,-82 -83,-222 -84,-266 0,-19 17,-23 37,-10 7,5 22,43 33,85 37,146 129,312 238,429 64,69 175,150 267,196 282,141 586,145 863,12 45,-21 103,-53 128,-71 78,-53 187,-155 224,-208 27,-39 41,-50 63,-51 15,0 27,5 27,11 0,18 -84,121 -151,185 -123,116 -279,203 -449,249 -104,28 -298,41 -400,26 z"
       id="path7824"
       style="fill:#552200" />
    <path
       d="m 1355,2167 c -5,-18 -18,-32 -34,-39 l -26,-10 23,-15 c 14,-10 22,-26 22,-44 0,-29 0,-29 25,-13 14,9 36,14 49,12 22,-5 24,-2 19,22 -3,15 0,37 6,49 11,19 9,21 -15,21 -15,0 -34,10 -44,23 l -18,22 z"
       id="path7826"
       style="fill:#552200" />
    <path
       d="m 1712,2143 c -6,-11 -26,-23 -43,-27 -31,-6 -31,-7 -14,-26 11,-12 16,-29 13,-44 -4,-22 -2,-24 26,-23 17,0 39,-3 49,-7 13,-6 17,-3 17,15 0,12 10,33 21,45 l 22,23 -27,7 c -15,3 -33,18 -40,32 -13,25 -14,25 -24,5 z"
       id="path7828"
       style="fill:#552200" />
    <path
       d="m 1040,1983 c 0,-18 -8,-33 -22,-42 -21,-13 -21,-13 9,-26 17,-7 34,-24 38,-36 8,-23 8,-23 24,-3 9,12 29,24 45,28 27,7 28,8 11,26 -12,13 -15,28 -11,44 6,22 3,24 -26,23 -18,0 -41,3 -50,7 -15,7 -18,3 -18,-21 z"
       id="path7830"
       style="fill:#552200" />
    <path
       d="m 2055,1994 c -12,-9 -31,-13 -47,-10 -31,6 -33,3 -18,-25 8,-14 6,-25 -6,-44 -16,-25 -16,-25 12,-25 15,0 38,-9 50,-20 l 21,-21 6,29 c 4,22 14,31 33,36 l 28,7 -27,22 c -14,12 -27,32 -29,44 -3,20 -5,20 -23,7 z"
       id="path7832"
       style="fill:#552200" />
    <path
       d="m 1431,1949 c -160,-31 -298,-112 -403,-236 -57,-67 -136,-213 -116,-213 8,0 19,15 26,34 7,18 30,61 52,95 153,236 438,354 714,296 90,-19 218,-82 284,-141 29,-25 56,-43 60,-39 14,14 -92,96 -182,140 -50,25 -122,52 -161,60 -76,16 -204,18 -274,4 z"
       id="path7836"
       style="fill:#552200" />
    <path
       d="m 2250,1744 c -261,-57 -686,-149 -945,-204 -258,-56 -508,-110 -555,-120 -47,-10 -182,-39 -300,-65 -118,-25 -218,-49 -222,-53 -4,-4 -5,-17 -2,-28 l 6,-21 131,28 c 73,16 173,37 222,48 50,11 167,36 260,56 94,20 220,47 280,60 125,27 679,147 1235,266 206,44 383,83 393,85 25,8 19,48 -8,51 -11,0 -234,-45 -495,-103 z"
       id="path7838"
       style="fill:#552200" />
    <path
       d="m 1495,1818 c -102,-22 -114,-107 -22,-149 55,-24 111,-24 164,2 121,58 4,179 -142,147 z m 120,-78 c 57,-8 32,-12 -69,-10 -92,2 -135,19 -46,18 36,0 88,-3 115,-8 z"
       id="path7840"
       style="fill:#552200" />
    <path
       d="m 1264,1765 c -39,-59 -23,-164 27,-180 56,-18 101,103 65,173 -21,42 -67,45 -92,7 z m 49,-72 c -3,-43 -7,-80 -9,-82 -2,-2 -4,32 -4,77 0,47 4,82 10,82 6,0 7,-29 3,-77 z"
       id="path7842"
       style="fill:#552200" />
    <path
       d="m 855,1744 c -11,-9 -33,-13 -48,-11 -26,3 -27,2 -22,-24 4,-15 1,-37 -5,-48 -10,-19 -8,-21 17,-21 18,0 33,-8 41,-20 14,-23 32,-18 32,9 0,10 12,23 27,30 l 27,13 -21,16 c -12,9 -23,29 -25,44 -3,25 -4,26 -23,12 z"
       id="path7844"
       style="fill:#552200" />
    <path
       d="m 2733,1659 c -35,-10 -43,-32 -18,-46 12,-7 11,-13 -7,-41 -16,-25 -23,-30 -29,-20 -12,17 -11,48 0,48 5,0 7,9 4,20 -6,21 -21,24 -72,14 -34,-7 -43,-37 -17,-58 17,-13 47,-154 35,-162 -11,-6 -11,-15 0,-32 6,-10 21,-12 55,-7 36,6 46,11 46,26 0,11 -7,22 -15,25 -16,6 -19,31 -9,59 6,14 9,14 29,-5 19,-18 22,-29 18,-57 -5,-32 -4,-34 18,-28 13,3 42,9 63,13 51,10 55,24 16,59 -18,15 -45,45 -62,65 l -29,38 25,33 c 47,61 30,79 -51,56 z"
       id="path7848"
       style="fill:#552200" />
    <path
       d="m 2403,1588 c -36,-8 -43,-13 -43,-34 0,-13 5,-24 11,-24 15,0 3,-155 -14,-181 -18,-30 3,-42 54,-32 50,10 58,24 28,52 l -22,20 27,11 c 38,14 56,13 56,-5 0,-8 -4,-15 -10,-15 -11,0 -14,-33 -4,-42 3,-3 20,-2 37,2 18,4 44,11 60,14 20,5 27,12 27,31 0,15 -6,25 -14,25 -8,0 -37,43 -65,95 -55,101 -53,100 -128,83 z m 52,-98 c 19,-37 19,-40 -5,-40 -16,0 -20,7 -20,35 0,43 5,44 25,5 z"
       id="path7850"
       style="fill:#552200" />
    <path
       d="m 2172,1538 c -77,-18 -82,-21 -76,-41 4,-12 12,-26 19,-32 16,-13 46,-149 34,-153 -11,-4 -12,-39 -1,-46 7,-4 182,31 190,38 2,2 0,20 -4,41 -6,32 -10,36 -33,33 -18,-2 -26,-9 -25,-21 1,-11 -7,-19 -23,-23 -28,-8 -29,-7 -38,28 -6,23 -3,27 24,33 31,7 38,19 22,43 -5,8 -17,11 -34,7 -20,-5 -26,-2 -32,14 -3,11 -3,25 0,31 10,16 43,12 53,-6 12,-21 52,-10 52,14 0,35 -13,62 -29,61 -9,-1 -53,-10 -99,-21 z"
       id="path7852"
       style="fill:#552200" />
    <path
       d="m 1975,1493 c -133,-25 -145,-32 -110,-67 21,-21 46,-134 38,-178 -6,-43 -4,-44 63,-27 39,10 44,14 38,32 -4,12 -13,27 -20,35 -17,16 -19,55 -2,50 12,-4 19,-15 37,-60 12,-31 54,-47 80,-31 18,11 28,83 12,83 -5,0 -11,-8 -14,-17 -3,-16 -5,-16 -12,2 -4,11 -17,30 -27,41 -13,14 -16,24 -9,29 6,3 11,21 11,39 0,46 -39,77 -85,69 z m 23,-80 c 4,-25 -35,-54 -42,-31 -16,53 -15,59 12,56 19,-2 28,-10 30,-25 z"
       id="path7854"
       style="fill:#552200" />
    <path
       d="m 1715,1440 c -16,-4 -42,-11 -57,-14 -29,-7 -40,-40 -16,-48 17,-6 50,-161 36,-169 -6,-4 -7,-16 -3,-29 5,-16 12,-20 28,-16 12,3 48,11 79,17 77,15 105,45 92,96 -5,23 -18,42 -32,49 -15,7 -20,14 -13,18 18,12 12,65 -9,86 -21,21 -54,24 -105,10 z m 53,-76 c 2,-13 -4,-24 -14,-28 -21,-8 -21,-8 -29,27 -7,26 -5,28 16,25 15,-2 25,-11 27,-24 z m 20,-73 c 21,-13 11,-55 -14,-59 -17,-2 -23,3 -27,25 -7,36 13,52 41,34 z"
       id="path7860"
       style="fill:#552200" />
    <path
       d="m 1423,1377 c -94,-20 -108,-31 -79,-60 23,-22 48,-134 41,-178 -8,-47 -7,-47 110,-20 l 80,18 -3,34 c -2,19 -7,37 -10,41 -13,13 -52,-4 -52,-22 0,-10 -10,-20 -22,-23 -27,-7 -26,-8 -34,31 -5,27 -3,32 12,32 29,0 45,15 38,34 -5,12 -16,16 -38,14 -27,-3 -31,0 -34,25 -2,15 1,27 7,27 5,0 16,3 25,6 11,4 16,1 16,-11 0,-12 7,-16 28,-13 24,3 27,6 24,38 -2,19 -7,38 -10,41 -4,3 -49,-4 -99,-14 z"
       id="path7862"
       style="fill:#552200" />
    <path
       d="m 1240,1338 c -104,-22 -120,-28 -120,-48 0,-10 6,-23 14,-27 17,-10 50,-157 36,-161 -12,-4 -13,-22 -1,-40 6,-11 25,-9 101,8 l 92,22 -5,35 c -8,44 -10,47 -40,39 -16,-4 -24,-12 -23,-23 1,-12 -7,-19 -25,-21 -23,-3 -27,1 -31,27 -4,26 -1,31 24,36 21,5 28,12 28,31 0,23 -3,24 -34,19 -29,-6 -34,-4 -39,16 -7,28 -9,26 26,34 21,6 27,4 27,-9 0,-17 4,-19 37,-10 12,3 20,11 18,17 -2,7 -6,24 -9,40 -7,29 -9,30 -76,15 z"
       id="path7864"
       style="fill:#552200" />
    <path
       d="m 983,1283 c -66,-14 -73,-18 -73,-39 0,-13 6,-24 13,-24 18,0 53,-160 37,-170 -17,-11 0,-40 24,-40 37,0 96,20 96,33 0,18 -13,32 -30,32 -8,0 -16,10 -18,23 -3,18 2,23 28,28 22,5 29,11 26,21 -4,8 -6,19 -6,24 0,5 -14,8 -32,7 -27,-3 -32,1 -39,25 -6,24 -4,30 14,37 15,6 25,4 33,-6 6,-8 21,-14 33,-14 16,0 21,6 21,24 0,61 -9,63 -127,39 z"
       id="path7866"
       style="fill:#552200" />
    <path
       d="M 2735,1245 C 2620,1219 1814,1045 650,794 337,727 350,731 350,704 c 0,-15 6,-24 15,-24 9,0 213,42 453,94 240,52 514,111 607,131 94,20 325,70 515,111 190,41 482,104 650,140 168,36 306,67 307,68 1,1 0,12 -4,24 -7,27 -24,27 -158,-3 z"
       id="path7868"
       style="fill:#552200" />
    <path
       d="m 805,1244 c -33,-8 -70,-16 -82,-19 -26,-6 -31,-39 -8,-52 18,-10 50,-154 36,-163 -6,-3 -8,-16 -4,-29 4,-17 11,-21 27,-17 11,2 38,8 59,11 45,9 52,40 12,55 -29,11 -35,50 -7,50 28,0 42,14 36,36 -4,16 -12,19 -38,16 -30,-3 -34,-1 -39,25 -3,16 0,31 6,35 20,13 47,9 47,-7 0,-16 4,-18 37,-9 12,3 20,11 18,17 -2,7 -6,24 -9,40 -7,30 -7,30 -91,11 z"
       id="path7870"
       style="fill:#552200" />
    <path
       d="m 532,1187 c -74,-42 -78,-163 -7,-234 37,-37 77,-43 125,-18 43,22 60,53 60,108 0,60 -19,107 -55,135 -31,25 -87,29 -123,9 z m 84,-82 c 20,-48 19,-114 -2,-122 -21,-8 -41,18 -55,71 -14,50 -5,86 22,86 13,0 25,-11 35,-35 z"
       id="path7872"
       style="fill:#552200" />
    <path
       d="m 388,1148 c -7,-7 -31,-13 -52,-13 -48,0 -76,-32 -83,-98 -11,-93 62,-178 138,-162 33,7 89,50 89,68 0,7 -10,18 -22,26 -20,12 -24,11 -36,-8 -19,-27 -57,-27 -76,1 -21,30 -21,102 0,119 14,11 19,10 34,-9 20,-25 58,-29 66,-8 8,22 -15,96 -31,96 -7,0 -20,-6 -27,-12 z"
       id="path7874"
       style="fill:#552200" />
    <path
       d="m 2541,1101 c -8,-5 -22,-42 -32,-81 -88,-344 -362,-616 -709,-704 -239,-61 -465,-36 -684,75 -134,68 -244,161 -353,297 -13,17 -27,23 -47,20 l -28,-3 44,-60 c 200,-271 529,-427 863,-412 196,9 403,76 551,178 186,127 344,349 408,573 35,121 33,146 -13,117 z"
       id="path7876"
       style="fill:#552200" />
    <path
       d="m 2179,998 c -37,-95 -150,-231 -243,-294 -60,-41 -163,-84 -235,-100 -196,-41 -397,7 -562,134 -70,53 -102,61 -46,10 245,-218 614,-236 878,-42 96,70 208,215 234,302 10,34 -11,26 -26,-10 z"
       id="path7878"
       style="fill:#552200" />
    <path
       d="m 1792,943 c -23,-9 -42,-61 -42,-113 0,-41 5,-56 25,-75 30,-31 40,-31 70,1 66,71 25,218 -53,187 z m 19,-174 c -8,-21 -10,-17 -10,26 -1,28 3,68 7,90 7,37 7,36 10,-26 2,-36 -2,-76 -7,-90 z"
       id="path7880"
       style="fill:#552200" />
    <path
       d="m 2250,909 c 0,-14 -10,-24 -29,-32 l -29,-11 24,-19 c 14,-11 24,-29 24,-44 0,-25 1,-25 25,-9 16,10 34,14 50,10 28,-7 30,-2 15,27 -8,14 -6,25 6,44 16,25 16,25 -14,25 -16,0 -35,7 -42,15 -18,21 -30,19 -30,-6 z"
       id="path7882"
       style="fill:#552200" />
    <path
       d="m 1503,874 c -12,-3 -33,-16 -47,-29 -67,-62 0,-135 121,-135 126,0 179,95 82,146 -32,16 -118,26 -156,18 z m 162,-84 c 26,-11 -115,-12 -170,-1 -32,7 -21,9 55,9 52,0 104,-3 115,-8 z"
       id="path7884"
       style="fill:#552200" />
    <path
       d="m 1048,648 c -2,-13 -15,-29 -31,-36 l -28,-13 26,-20 c 15,-13 25,-31 25,-46 0,-25 1,-26 20,-8 13,11 30,16 50,13 34,-5 34,-5 19,23 -8,16 -7,26 6,45 15,24 15,24 -15,24 -19,0 -34,7 -42,20 -17,26 -26,25 -30,-2 z"
       id="path7886"
       style="fill:#552200" />
    <path
       d="m 2031,652 c -8,-15 -21,-22 -43,-22 h -30 l 17,-26 c 10,-16 14,-35 11,-50 -6,-24 -5,-25 28,-19 20,4 36,2 40,-4 12,-18 26,-12 26,11 0,12 10,32 21,44 l 22,23 -27,7 c -14,3 -26,9 -26,13 0,4 -6,16 -14,26 -13,18 -14,18 -25,-3 z"
       id="path7888"
       style="fill:#552200" />
    <path
       d="m 1360,498 c 0,-23 -7,-37 -22,-47 -21,-13 -21,-13 9,-26 17,-7 34,-24 38,-36 8,-23 8,-23 24,-3 9,12 29,24 44,28 26,6 27,8 13,28 -10,13 -13,31 -9,46 5,23 4,24 -22,18 -18,-5 -35,-2 -51,9 -24,15 -24,15 -24,-17 z"
       id="path7890"
       style="fill:#552200" />
    <path
       d="m 1755,484 c -12,-9 -31,-13 -47,-10 -31,6 -33,3 -18,-25 8,-14 6,-25 -6,-44 -16,-25 -16,-25 14,-25 20,0 36,-7 46,-22 l 15,-21 10,26 c 6,14 20,31 32,38 l 23,12 -21,17 c -12,9 -23,29 -25,43 -3,24 -4,25 -23,11 z"
       id="path7892"
       style="fill:#552200" />
  </g>
</svg>
