<?xml version="1.0" encoding="UTF-8" standalone="no"?>
<svg
   version="1.0"
   width="224.8pt"
   height="224.10001pt"
   viewBox="0 0 224.8 224.1"
   preserveAspectRatio="xMidYMid"
   id="svg748"
   sodipodi:docname="lable_cofe_ink1.svg"
   inkscape:export-filename="lable_cofe_ink.svg"
   inkscape:export-xdpi="47.163918"
   inkscape:export-ydpi="47.163918"
   inkscape:version="1.2.1 (9c6d41e410, 2022-07-14)"
   xmlns:inkscape="http://www.inkscape.org/namespaces/inkscape"
   xmlns:sodipodi="http://sodipodi.sourceforge.net/DTD/sodipodi-0.dtd"
   xmlns="http://www.w3.org/2000/svg"
   xmlns:svg="http://www.w3.org/2000/svg">
  <defs
     id="defs752" />
  <sodipodi:namedview
     id="namedview750"
     pagecolor="#ffffff"
     bordercolor="#666666"
     borderopacity="1.0"
     inkscape:showpageshadow="2"
     inkscape:pageopacity="0.0"
     inkscape:pagecheckerboard="0"
     inkscape:deskcolor="#d1d1d1"
     inkscape:document-units="pt"
     showgrid="false"
     inkscape:zoom="1.3330356"
     inkscape:cx="397.96386"
     inkscape:cy="132.40457"
     inkscape:window-width="1920"
     inkscape:window-height="1001"
     inkscape:window-x="-9"
     inkscape:window-y="-9"
     inkscape:window-maximized="1"
     inkscape:current-layer="svg748" />
  <g
     transform="matrix(0.1,0,0,-0.1,-48.3,469.9)"
     fill="#000000"
     stroke="none"
     id="g746"
     style="fill:#784421">
    <path
       d="m 1461,4670 c -44,-32 -65,-36 -125,-19 -37,10 -40,9 -80,-30 -39,-38 -46,-41 -97,-41 -54,0 -56,-1 -87,-44 -29,-41 -37,-45 -85,-51 -53,-7 -54,-8 -79,-59 -20,-40 -34,-56 -60,-65 -18,-7 -42,-16 -54,-21 -14,-6 -24,-23 -32,-62 -11,-49 -16,-55 -62,-81 l -50,-28 v -54 c 0,-52 -2,-56 -46,-92 l -45,-38 6,-58 c 7,-55 6,-59 -28,-100 l -34,-42 16,-55 c 17,-55 17,-55 -10,-103 l -26,-49 27,-50 28,-51 -18,-53 -18,-53 35,-45 c 33,-43 35,-49 29,-99 l -7,-53 46,-41 c 43,-40 45,-45 45,-95 v -53 l 50,-27 c 42,-24 51,-34 60,-70 16,-63 22,-71 75,-88 44,-13 50,-19 71,-67 21,-47 27,-53 61,-58 72,-12 78,-15 108,-60 30,-45 30,-45 90,-45 55,0 62,-3 97,-37 l 37,-36 55,12 c 55,12 56,12 101,-19 l 46,-32 55,22 54,22 51,-21 50,-22 49,31 c 45,29 52,30 87,21 57,-16 67,-14 109,24 35,31 45,35 96,35 56,0 58,1 88,44 31,46 38,50 105,61 36,5 43,11 65,57 22,46 31,54 77,71 51,19 52,21 64,72 10,47 16,55 60,80 50,30 59,46 59,107 0,31 7,42 43,72 l 44,36 -8,56 c -7,56 -7,58 28,101 l 36,44 -17,54 c -17,54 -17,54 9,105 l 26,51 -27,49 c -26,48 -26,48 -9,99 17,53 17,56 -26,111 -24,32 -26,40 -20,88 l 8,53 -44,38 c -39,35 -43,43 -43,85 0,51 -18,76 -76,107 -24,13 -33,27 -43,71 -13,54 -14,55 -65,71 -47,15 -54,21 -78,71 -26,53 -27,54 -82,60 -51,7 -57,10 -83,52 l -28,44 h -60 c -55,0 -62,3 -100,39 l -40,39 -57,-11 c -54,-10 -59,-9 -97,16 -47,31 -61,32 -116,8 -39,-17 -41,-17 -92,5 l -51,23 z m 246,-111 c 410,-45 739,-323 853,-719 28,-95 38,-316 20,-426 -56,-350 -314,-655 -653,-770 -555,-189 -1144,140 -1284,719 -25,102 -25,324 0,431 97,410 444,721 857,765 108,12 102,12 207,0 z"
       id="path378"
       style="fill:#784421" />
    <path
       d="m 1443,4526 c -397,-76 -695,-367 -778,-759 -24,-112 -20,-306 9,-419 45,-178 125,-319 255,-449 252,-252 604,-343 944,-244 580,168 863,820 591,1360 -123,242 -353,426 -623,496 -100,26 -300,34 -398,15 z m 383,-26 c 182,-44 341,-136 470,-273 172,-182 256,-394 257,-647 1,-173 -37,-322 -118,-464 -182,-319 -505,-499 -870,-483 -241,10 -435,93 -611,260 -178,168 -279,388 -291,634 -16,313 110,596 351,789 228,183 531,252 812,184 z"
       id="path380"
       style="fill:#784421" />
    <path
       d="m 1590,4483 c -26,-9 -40,-35 -40,-74 0,-41 13,-56 56,-65 44,-8 78,23 78,71 0,55 -43,86 -94,68 z m 50,-68 c 0,-12 -7,-28 -15,-35 -12,-10 -17,-8 -26,13 -15,33 5,75 27,56 8,-6 14,-22 14,-34 z"
       id="path382"
       style="fill:#784421" />
    <path
       d="m 1463,4473 c -60,-8 -84,-80 -40,-121 29,-27 58,-28 88,-3 18,15 21,22 13,31 -8,8 -14,9 -18,1 -11,-18 -44,-13 -56,8 -19,37 10,67 38,39 15,-15 35,3 30,28 -4,20 -11,22 -55,17 z"
       id="path384"
       style="fill:#784421" />
    <path
       d="m 1719,4471 c -1,-3 0,-18 1,-33 1,-16 -6,-42 -14,-60 -19,-36 -20,-33 21,-41 32,-6 53,6 33,18 -17,10 -11,25 10,25 23,0 27,15 5,24 -8,3 -15,12 -15,21 0,8 7,15 15,15 8,0 15,-4 15,-10 0,-5 9,-10 20,-10 22,0 29,40 8,40 -7,1 -32,5 -55,9 -24,5 -43,6 -44,2 z"
       id="path386"
       style="fill:#784421" />
    <path
       d="m 1860,4428 c 0,-28 -22,-88 -32,-88 -18,0 -6,-28 15,-34 41,-11 48,-8 41,20 -6,23 -4,25 15,19 25,-8 29,10 5,23 -12,7 -14,14 -7,27 9,16 12,16 32,-6 19,-20 23,-21 31,-9 9,14 13,30 8,30 -2,0 -27,9 -55,20 l -53,20 z"
       id="path388"
       style="fill:#784421" />
    <path
       d="m 1244,4405 c -14,-11 -16,-17 -7,-23 10,-6 10,-12 -2,-28 -14,-18 -14,-18 -15,9 0,30 -16,35 -46,12 -13,-10 -15,-17 -8,-22 15,-11 44,-68 44,-89 0,-13 6,-15 27,-9 38,9 39,12 18,35 -10,11 -16,22 -13,25 9,9 38,-7 38,-21 0,-8 4,-14 10,-14 14,0 60,22 60,29 0,3 -18,16 -41,29 -27,16 -39,28 -35,38 3,8 9,21 12,29 8,20 -16,20 -42,0 z"
       id="path390"
       style="fill:#784421" />
    <path
       d="m 1991,4378 c 4,-19 -33,-88 -43,-82 -4,3 -8,-1 -8,-9 0,-9 21,-27 46,-42 37,-22 48,-25 55,-14 13,21 5,34 -19,34 -12,0 -22,3 -22,8 0,4 0,12 0,17 0,6 11,8 25,4 29,-7 33,3 8,21 -18,14 -10,37 11,29 8,-3 16,-15 20,-26 4,-18 7,-19 20,-8 24,19 20,26 -28,54 -49,29 -68,33 -65,14 z"
       id="path392"
       style="fill:#784421" />
    <path
       d="m 1054,4295 c -19,-17 -25,-27 -18,-32 15,-11 45,-83 39,-93 -12,-20 19,-21 38,-2 19,19 19,22 4,28 -14,5 -15,9 -6,20 15,18 29,18 29,-1 0,-19 10,-19 38,1 20,14 33,52 13,40 -4,-3 -23,6 -42,20 -59,44 -63,45 -95,19 z m 56,-45 c 0,-5 -4,-12 -10,-15 -5,-3 -10,-4 -10,-1 0,2 -3,12 -6,20 -5,12 -2,15 10,10 9,-3 16,-10 16,-14 z"
       id="path394"
       style="fill:#784421" />
    <path
       d="m 2120,4300 c 0,-18 -43,-70 -57,-70 -25,0 -12,-25 30,-57 35,-27 44,-30 56,-19 15,16 5,40 -13,33 -18,-7 -40,9 -32,22 4,6 18,8 32,5 26,-7 32,4 12,24 -6,6 -9,15 -5,18 9,9 39,-4 33,-15 -3,-5 1,-14 8,-21 12,-9 17,-7 25,9 9,17 5,24 -28,50 -40,32 -61,39 -61,21 z"
       id="path396"
       style="fill:#784421" />
    <path
       d="m 1432,4270 c -256,-67 -450,-262 -519,-520 -22,-85 -22,-262 0,-346 70,-260 261,-450 521,-521 92,-25 261,-22 359,5 233,66 417,239 492,463 21,65 29,110 32,194 6,142 -12,229 -74,355 -63,126 -178,245 -299,308 -155,80 -352,104 -512,62 z m 331,-6 c 154,-35 297,-124 393,-247 102,-131 143,-238 151,-402 7,-141 -11,-226 -73,-353 -38,-80 -60,-109 -128,-176 -91,-91 -161,-136 -265,-172 -204,-71 -432,-45 -612,71 -257,166 -378,473 -303,770 30,117 90,221 184,316 138,139 296,206 493,208 49,1 120,-6 160,-15 z"
       id="path398"
       style="fill:#784421" />
    <path
       d="m 1452,4221 c -235,-58 -434,-257 -487,-486 -23,-97 -20,-243 5,-335 57,-203 204,-363 404,-441 106,-41 274,-52 388,-24 222,53 406,225 480,450 30,92 32,278 4,370 -105,346 -452,550 -794,466 z m 158,-278 c 33,-22 49,-44 50,-64 0,-9 11,-24 25,-33 34,-22 32,-62 -6,-138 -23,-45 -29,-69 -25,-91 6,-29 5,-29 -17,-15 -12,9 -29,27 -37,41 -13,24 -13,28 7,54 64,82 75,103 69,128 -6,25 -26,35 -26,13 0,-6 -17,-32 -38,-57 -69,-82 -76,-110 -40,-156 l 21,-27 -33,17 c -49,25 -80,61 -80,90 0,19 17,44 59,88 71,72 81,99 51,139 -23,32 -16,36 20,11 z m 230,-408 c 0,-17 6,-25 17,-25 28,0 53,-31 53,-65 0,-44 -33,-82 -82,-97 -25,-7 -44,-21 -51,-35 -10,-23 -12,-23 -188,-23 -174,0 -179,1 -193,23 -22,33 -53,135 -59,195 l -6,52 h 254 255 z m -25,-310 -60,-35 h -165 -165 l -60,35 -60,34 h 285 285 z"
       id="path400"
       style="fill:#784421" />
    <path
       d="m 1381,3478 c 10,-63 30,-140 36,-135 9,10 -21,187 -32,187 -9,0 -10,-14 -4,-52 z"
       id="path402"
       style="fill:#784421" />
    <path
       d="m 1831,3457 c -4,-12 -11,-35 -15,-50 -6,-24 -4,-28 10,-25 24,4 56,51 49,70 -11,27 -35,30 -44,5 z"
       id="path404"
       style="fill:#784421" />
    <path
       d="m 939,4191 c -29,-37 -37,-59 -19,-54 5,2 25,-16 45,-39 l 35,-42 38,37 c 30,31 35,40 26,55 -12,19 -29,19 -29,-1 -1,-26 -16,-39 -31,-26 -11,9 -12,15 -3,26 16,18 3,29 -16,13 -19,-16 -30,-7 -21,16 4,9 9,14 13,11 3,-4 12,-2 20,4 10,9 10,15 2,25 -17,21 -25,18 -60,-25 z"
       id="path406"
       style="fill:#784421" />
    <path
       d="m 2267,4157 c -8,-13 -32,-32 -51,-41 -40,-19 -39,-28 8,-79 30,-32 57,-32 71,1 5,12 17,22 26,22 36,0 29,42 -14,93 l -24,28 z m 38,-46 c 7,-12 -12,-24 -25,-16 -11,7 -4,25 10,25 5,0 11,-4 15,-9 z m -43,-53 c -9,-9 -15,-9 -24,0 -10,10 -10,15 2,22 9,6 19,5 24,0 7,-7 6,-14 -2,-22 z"
       id="path408"
       style="fill:#784421" />
    <path
       d="m 834,4050 c -27,-40 -26,-52 0,-56 19,-3 66,-35 66,-45 0,-15 22,-10 36,9 19,24 17,32 -5,32 -21,0 -35,13 -24,23 3,4 14,2 25,-4 30,-16 62,15 46,45 -7,13 -13,16 -16,8 -6,-20 -49,-14 -55,8 -9,34 -44,24 -73,-20 z m 56,-16 c 0,-11 -5,-14 -16,-10 -9,3 -18,6 -20,6 -3,0 -2,5 1,10 10,16 35,12 35,-6 z"
       id="path410"
       style="fill:#784421" />
    <path
       d="m 2335,4019 c -22,-16 -45,-27 -50,-26 -13,2 -17,-12 -9,-35 7,-22 30,-23 38,-2 3,8 11,12 17,8 8,-5 4,-12 -11,-24 -27,-20 -20,-60 11,-60 10,0 19,3 18,8 -1,4 2,16 6,28 5,16 13,20 31,16 33,-6 41,20 19,69 -10,22 -21,41 -24,43 -3,2 -24,-10 -46,-25 z m 55,-38 c 0,-14 -18,-23 -30,-16 -6,4 -8,11 -5,16 8,12 35,12 35,0 z"
       id="path412"
       style="fill:#784421" />
    <path
       d="m 783,3948 c -22,-32 -42,-88 -32,-94 6,-3 13,-3 16,0 8,7 76,-22 85,-37 10,-16 21,-2 41,49 19,50 5,81 -32,71 -14,-3 -24,0 -28,9 -6,17 -37,18 -50,2 z m 37,-49 c 0,-5 -7,-9 -15,-9 -15,0 -20,12 -9,23 8,8 24,-1 24,-14 z m 50,-14 c 0,-8 -7,-15 -15,-15 -8,0 -15,7 -15,15 0,8 7,15 15,15 8,0 15,-7 15,-15 z"
       id="path414"
       style="fill:#784421" />
    <path
       d="m 2423,3883 c -13,-8 -36,-16 -53,-18 -17,-1 -33,-4 -35,-7 -9,-9 18,-108 29,-108 30,1 36,17 16,40 -16,18 -17,25 -8,32 19,12 28,10 28,-7 0,-8 7,-15 16,-15 11,0 14,6 9,20 -4,14 -2,20 8,20 19,0 30,-27 14,-33 -9,-3 -9,-7 0,-17 14,-15 47,-5 39,13 -2,6 -10,31 -17,55 -13,47 -14,48 -46,25 z"
       id="path416"
       style="fill:#784421" />
    <path
       d="m 716,3748 c -3,-13 -8,-40 -11,-61 l -6,-39 30,7 c 17,4 47,1 67,-5 19,-7 37,-10 39,-8 2,2 7,26 10,54 6,42 4,52 -9,57 -11,4 -19,0 -23,-10 -4,-9 -2,-18 5,-21 15,-5 3,-32 -14,-32 -8,0 -14,9 -14,20 0,23 -18,27 -26,5 -4,-8 -13,-15 -21,-15 -13,0 -13,3 1,25 9,14 14,30 11,35 -11,18 -35,10 -39,-12 z"
       id="path418"
       style="fill:#784421" />
    <path
       d="m 2363,3719 c 4,-13 7,-28 7,-32 0,-5 9,-5 20,-2 15,5 20,2 20,-13 0,-16 -5,-19 -22,-14 -19,5 -21,2 -14,-28 3,-19 7,-35 9,-36 7,-7 127,58 127,69 0,29 -14,58 -25,53 -12,-4 -46,2 -104,20 -22,6 -24,5 -18,-17 z m 102,-39 c 3,-5 -3,-10 -14,-10 -12,0 -21,5 -21,10 0,6 6,10 14,10 8,0 18,-4 21,-10 z"
       id="path420"
       style="fill:#784421" />
    <path
       d="m 700,3560 c 0,-55 10,-75 25,-50 8,13 82,13 90,0 14,-22 25,4 25,56 0,51 -1,54 -25,54 -16,0 -25,-6 -25,-15 0,-8 5,-15 10,-15 6,0 10,-7 10,-15 0,-8 -7,-15 -15,-15 -8,0 -15,7 -15,15 0,23 -27,18 -34,-7 -4,-18 -8,-20 -18,-10 -9,9 -9,15 0,24 18,18 14,38 -8,38 -18,0 -20,-7 -20,-60 z"
       id="path422"
       style="fill:#784421" />
    <path
       d="m 2378,3549 c -4,-25 -2,-30 13,-26 9,3 23,1 30,-4 12,-8 12,-10 0,-18 -7,-5 -22,-6 -32,-4 -16,5 -19,0 -19,-31 0,-42 3,-43 50,-15 l 34,21 18,-22 c 21,-26 24,-25 33,12 6,22 3,27 -16,30 -12,2 -24,9 -27,16 -3,9 3,11 22,6 24,-6 26,-3 26,23 0,30 0,30 -49,25 -30,-2 -51,0 -55,7 -12,20 -24,12 -28,-20 z"
       id="path424"
       style="fill:#784421" />
    <path
       d="m 708,3475 c -10,-10 15,-115 28,-115 7,0 14,5 16,11 2,6 27,12 57,12 48,1 52,3 47,21 -3,12 -6,27 -6,34 0,6 -6,12 -14,12 -8,0 -17,-6 -20,-12 -3,-10 -9,-8 -19,5 -18,22 -27,22 -27,-2 0,-10 -7,-22 -16,-25 -14,-5 -15,-1 -10,29 6,30 4,35 -12,35 -10,0 -21,-2 -24,-5 z"
       id="path426"
       style="fill:#784421" />
    <path
       d="m 2363,3349 c -26,-10 -43,-38 -43,-74 0,-20 4,-26 18,-23 11,2 16,11 14,26 -4,28 21,39 54,24 29,-14 31,-38 4,-45 -20,-5 -29,-37 -11,-37 5,0 16,-3 25,-6 11,-4 16,-1 16,10 0,9 5,25 12,36 28,45 -35,110 -89,89 z"
       id="path428"
       style="fill:#784421" />
    <path
       d="m 744,3332 c -14,-8 21,-112 37,-112 5,0 9,4 9,9 0,11 55,31 86,31 28,0 27,-2 13,39 -11,32 -29,42 -29,16 0,-8 -7,-15 -15,-15 -8,0 -15,7 -15,16 0,9 -6,14 -12,11 -7,-2 -12,-14 -11,-26 2,-15 -3,-21 -18,-21 -18,0 -20,4 -14,30 7,30 -5,39 -31,22 z"
       id="path430"
       style="fill:#784421" />
    <path
       d="m 832,3213 c -47,-40 -18,-123 42,-123 35,0 76,37 76,69 0,63 -70,95 -118,54 z m 88,-38 c 0,-22 -59,-50 -74,-35 -8,9 -5,16 13,31 28,23 61,25 61,4 z"
       id="path432"
       style="fill:#784421" />
    <path
       d="m 2277,3202 c -16,-17 -22,-41 -19,-72 2,-19 52,-50 81,-50 28,0 61,38 61,71 0,58 -85,93 -123,51 z m 74,-41 c 20,-16 22,-22 11,-33 -10,-10 -18,-10 -40,2 -33,19 -42,50 -14,50 11,0 30,-9 43,-19 z"
       id="path434"
       style="fill:#784421" />
    <path
       d="m 2208,3098 c -17,-26 -18,-42 -3,-44 25,-3 27,-5 15,-19 -17,-21 -4,-32 20,-18 14,10 21,9 30,-2 10,-12 7,-17 -14,-25 -29,-11 -33,-22 -13,-38 10,-9 22,-1 51,34 34,41 39,59 16,59 -17,0 -70,46 -70,60 0,22 -16,18 -32,-7 z"
       id="path436"
       style="fill:#784421" />
    <path
       d="m 960,3099 c 0,-6 9,-18 20,-27 19,-16 20,-19 5,-39 -22,-32 -55,-30 -55,1 0,33 -18,42 -38,22 -15,-15 -15,-19 -2,-29 8,-7 20,-21 26,-32 15,-27 55,-30 86,-6 34,28 39,53 17,90 -18,30 -59,44 -59,20 z"
       id="path438"
       style="fill:#784421" />
    <path
       d="m 2117,3002 c -21,-23 -22,-43 -3,-36 20,8 28,-12 11,-26 -8,-7 -12,-16 -9,-22 3,-5 12,-4 20,3 11,9 17,9 29,-1 17,-14 9,-34 -10,-26 -22,8 -38,-19 -20,-34 13,-11 21,-8 48,16 18,16 36,32 41,36 5,4 -8,22 -28,41 -20,19 -36,42 -36,51 0,21 -23,20 -43,-2 z"
       id="path440"
       style="fill:#784421" />
    <path
       d="m 1091,2973 c 1,-10 1,-33 0,-50 -1,-28 -5,-33 -25,-33 -35,0 -40,-15 -11,-34 30,-20 35,-20 35,-1 0,8 9,15 20,15 25,0 25,-9 3,-26 -17,-13 -17,-15 1,-29 27,-20 29,-19 44,14 7,16 24,40 37,54 19,19 22,27 13,34 -31,24 -38,24 -48,-2 -5,-14 -14,-23 -20,-20 -16,10 -12,32 8,40 15,6 14,9 -11,31 -33,28 -49,31 -46,7 z"
       id="path442"
       style="fill:#784421" />
    <path
       d="m 1993,2912 c -33,-22 -40,-31 -32,-44 11,-19 40,-13 33,7 -3,7 2,15 11,19 10,3 18,-1 22,-11 4,-9 1,-19 -5,-21 -13,-4 -17,-32 -4,-32 4,0 13,5 19,11 8,8 13,8 17,0 10,-15 -3,-33 -18,-28 -7,3 -19,1 -26,-3 -11,-7 -11,-11 -1,-24 12,-14 18,-13 60,11 25,15 48,28 51,30 3,3 -5,12 -16,21 -25,20 -49,62 -46,80 4,20 -20,14 -65,-16 z"
       id="path444"
       style="fill:#784421" />
    <path
       d="m 1230,2897 c 0,-1 -2,-34 -5,-73 -4,-62 -2,-73 13,-77 9,-3 25,-8 35,-12 11,-5 17,-3 17,7 0,7 18,32 41,55 38,40 39,42 20,52 -28,15 -44,14 -37,-4 3,-10 -1,-15 -14,-15 -25,0 -34,16 -14,24 21,8 10,22 -26,34 -16,6 -30,10 -30,9 z m 58,-99 c -2,-6 -10,-14 -16,-16 -7,-2 -10,2 -6,12 7,18 28,22 22,4 z"
       id="path446"
       style="fill:#784421" />
    <path
       d="m 1879,2857 c -32,-16 -44,-27 -41,-39 5,-23 14,-23 35,2 18,22 37,19 37,-6 0,-8 -7,-14 -16,-14 -9,0 -14,-6 -11,-12 2,-7 14,-12 25,-10 15,2 22,-2 22,-13 0,-13 -6,-16 -25,-11 -18,5 -27,2 -31,-8 -12,-31 6,-36 59,-15 63,25 64,26 45,42 -18,14 -40,68 -36,87 5,21 -14,20 -63,-3 z"
       id="path448"
       style="fill:#784421" />
    <path
       d="m 1377,2821 c -6,-25 9,-37 26,-22 15,12 42,-2 33,-18 -4,-6 -16,-11 -27,-11 -10,0 -19,-4 -19,-10 0,-5 7,-10 15,-10 8,0 15,-7 15,-15 0,-19 -17,-19 -37,1 -13,13 -17,13 -24,2 -16,-25 -9,-35 29,-42 20,-3 46,-8 57,-12 18,-4 20,0 22,42 1,26 6,51 12,57 21,21 11,34 -28,41 -22,3 -46,8 -54,12 -9,3 -16,-3 -20,-15 z"
       id="path450"
       style="fill:#784421" />
    <path
       d="m 1700,2813 c -30,-6 -50,-21 -50,-39 0,-7 6,-19 13,-26 6,-7 12,-24 12,-38 0,-23 4,-25 45,-28 53,-3 82,10 62,30 -6,6 -12,34 -12,60 0,52 -2,53 -70,41 z m 28,-40 c -5,-25 -28,-28 -28,-4 0,12 6,21 16,21 9,0 14,-7 12,-17 z m 12,-59 c 0,-8 -7,-14 -15,-14 -15,0 -21,21 -9,33 10,9 24,-2 24,-19 z"
       id="path452"
       style="fill:#784421" />
    <path
       d="m 1507,2803 c -4,-3 -7,-13 -7,-21 0,-9 3,-12 7,-9 3,4 12,-1 18,-10 10,-13 10,-21 1,-35 -18,-30 4,-53 56,-56 l 44,-3 1,48 c 1,26 3,57 5,68 2,15 -3,21 -25,23 -27,3 -29,2 -22,-27 4,-18 2,-31 -3,-31 -5,0 -12,14 -15,30 -5,23 -12,30 -30,30 -13,0 -27,-3 -30,-7 z m 77,-88 c -4,-8 -10,-15 -15,-15 -5,0 -9,7 -9,15 0,8 7,15 15,15 9,0 12,-6 9,-15 z"
       id="path454"
       style="fill:#784421" />
  </g>
</svg>
