<?xml version="1.0" encoding="UTF-8" standalone="no"?>
<svg
   version="1.0"
   width="223.85139pt"
   height="224.28653pt"
   viewBox="0 0 223.85139 224.28653"
   preserveAspectRatio="xMidYMid"
   id="svg748"
   sodipodi:docname="lable_cofe_ink3.svg"
   inkscape:export-filename="lable_cofe_ink3.svg"
   inkscape:export-xdpi="47.163918"
   inkscape:export-ydpi="47.163918"
   inkscape:version="1.2.1 (9c6d41e410, 2022-07-14)"
   xmlns:inkscape="http://www.inkscape.org/namespaces/inkscape"
   xmlns:sodipodi="http://sodipodi.sourceforge.net/DTD/sodipodi-0.dtd"
   xmlns="http://www.w3.org/2000/svg"
   xmlns:svg="http://www.w3.org/2000/svg">
  <defs
     id="defs752" />
  <sodipodi:namedview
     id="namedview750"
     pagecolor="#ffffff"
     bordercolor="#666666"
     borderopacity="1.0"
     inkscape:showpageshadow="2"
     inkscape:pageopacity="0.0"
     inkscape:pagecheckerboard="0"
     inkscape:deskcolor="#d1d1d1"
     inkscape:document-units="pt"
     showgrid="false"
     inkscape:zoom="1.3330356"
     inkscape:cx="-170.66311"
     inkscape:cy="1.8754188"
     inkscape:window-width="1920"
     inkscape:window-height="1001"
     inkscape:window-x="-9"
     inkscape:window-y="-9"
     inkscape:window-maximized="1"
     inkscape:current-layer="svg748" />
  <g
     transform="matrix(0.1,0,0,-0.1,-446.54861,238.57664)"
     fill="#000000"
     stroke="none"
     id="g746"
     style="fill:#784421">
    <path
       d="m 5450,2380 c -322,-41 -620,-226 -797,-494 -377,-572 -165,-1335 452,-1632 585,-282 1288,-7 1528,597 60,152 71,219 71,414 0,163 -3,190 -27,280 -36,135 -127,317 -212,423 -203,252 -509,406 -830,417 -66,2 -149,0 -185,-5 z m 390,-75 c 323,-79 601,-313 732,-618 66,-151 82,-238 83,-422 0,-136 -4,-173 -24,-250 C 6600,898 6545,771 6485,679 6424,585 6266,428 6175,369 5745,91 5194,149 4834,509 c -207,206 -314,465 -314,756 0,185 41,348 130,512 160,297 466,507 805,552 107,15 265,5 385,-24 z"
       id="path588"
       style="fill:#784421" />
    <path
       d="m 5443,2290 c -137,-19 -306,-85 -433,-169 -81,-53 -211,-182 -270,-267 -287,-415 -233,-977 128,-1326 264,-256 625,-354 974,-264 371,95 651,375 750,751 29,112 36,323 14,432 -83,411 -370,718 -765,819 -108,28 -293,39 -398,24 z m 212,-123 c 19,-28 19,-81 0,-101 -54,-53 -133,-12 -127,67 4,59 93,83 127,34 z m -157,-9 c 4,-30 -21,-44 -38,-23 -17,21 -30,9 -30,-26 0,-33 22,-48 44,-30 13,11 46,5 46,-8 0,-10 -55,-41 -73,-41 -8,0 -26,9 -41,21 -36,29 -37,91 -1,115 14,9 31,14 40,11 8,-4 17,-2 21,4 10,17 29,4 32,-23 z m 314,6 c 17,-11 8,-44 -12,-44 -11,0 -20,4 -20,9 0,5 -7,11 -15,15 -10,4 -15,-1 -15,-14 0,-11 7,-20 15,-20 8,0 15,-7 15,-15 0,-8 -9,-15 -20,-15 -17,0 -19,-4 -14,-26 6,-25 6,-26 -27,-19 -48,10 -51,13 -33,40 8,13 15,42 16,65 v 42 l 51,-6 c 28,-4 54,-9 59,-12 z m 101,-31 c 48,-17 54,-26 37,-53 -8,-12 -12,-11 -31,9 -17,18 -23,20 -30,9 -6,-8 -3,-17 6,-24 22,-17 19,-37 -5,-31 -22,6 -37,-8 -20,-18 23,-14 9,-27 -22,-21 -39,8 -58,24 -41,34 18,11 44,79 37,96 -8,21 9,20 69,-1 z m -652,-24 c -10,-37 -4,-52 27,-69 47,-26 47,-27 13,-44 -39,-21 -48,-20 -54,4 -6,23 -27,27 -27,5 0,-8 5,-15 10,-15 20,0 9,-27 -15,-38 -22,-10 -27,-9 -31,6 -14,44 -38,92 -46,92 -19,0 -6,26 19,37 29,14 46,3 36,-24 -3,-7 -1,-13 5,-13 5,0 12,7 16,15 3,8 1,15 -4,15 -19,0 -10,27 13,38 27,13 43,9 38,-9 z m 780,-36 c 50,-28 56,-37 40,-62 -10,-16 -31,-6 -31,14 0,17 -28,27 -33,12 -2,-7 3,-17 11,-23 8,-6 12,-16 8,-23 -6,-9 -11,-9 -23,0 -12,10 -16,10 -23,-1 -11,-18 5,-29 30,-23 24,6 32,-10 16,-32 -12,-17 -16,-16 -64,11 -55,30 -62,41 -37,51 19,7 45,55 45,83 0,26 2,25 61,-7 z m -932,-87 c 25,-19 50,-34 56,-34 19,-1 13,-18 -15,-40 -30,-24 -56,-21 -46,4 5,12 2,12 -17,2 -19,-10 -20,-13 -4,-16 9,-2 17,-7 17,-11 0,-4 -30,-38 -67,-74 l -66,-67 -34,40 c -19,22 -41,40 -49,40 -25,0 -15,25 26,65 33,32 42,36 54,25 19,-15 12,-28 -22,-41 -19,-7 -22,-13 -14,-21 9,-9 15,-9 24,0 19,19 31,14 24,-12 -7,-27 11,-47 19,-22 17,53 14,50 34,32 17,-16 18,-15 16,8 -4,35 -28,96 -37,96 -25,0 20,59 46,60 4,0 29,-15 55,-34 z m 1065,-2 c 44,-35 46,-38 30,-55 -13,-14 -20,-16 -30,-8 -8,6 -12,15 -9,19 8,12 -13,23 -27,14 -7,-5 -5,-11 7,-21 14,-10 16,-16 7,-25 -8,-8 -15,-8 -26,1 -10,9 -16,9 -21,1 -9,-14 1,-25 23,-25 21,0 23,-39 2,-42 -8,-2 -35,15 -60,36 -40,36 -43,40 -25,47 26,10 64,55 65,77 0,25 11,22 64,-19 z m -434,-90 c 186,-43 346,-173 430,-349 49,-103 64,-169 64,-280 0,-111 -15,-177 -64,-280 -110,-228 -327,-364 -581,-365 -251,0 -472,138 -583,365 -62,128 -80,270 -50,412 61,298 321,511 624,512 52,1 124,-6 160,-15 z m 574,-52 c 26,-38 35,-82 17,-82 -6,0 -23,-14 -39,-31 -24,-26 -32,-29 -49,-21 -19,10 -73,74 -73,86 0,3 15,12 34,20 19,8 42,26 51,40 10,14 21,26 25,26 4,0 19,-17 34,-38 z m -1450,-58 c 9,-3 16,-12 16,-19 0,-7 11,-15 25,-17 13,-3 22,-1 19,3 -3,5 1,9 9,9 20,0 30,-30 15,-47 -8,-10 -22,-13 -46,-8 -23,4 -32,3 -27,-4 3,-6 12,-11 20,-11 23,0 27,-18 9,-44 l -16,-26 -30,31 c -17,16 -43,33 -59,36 -16,3 -29,9 -29,13 0,12 60,90 69,90 5,0 16,-3 25,-6 z m 1536,-74 c 11,-21 20,-48 20,-59 0,-20 -32,-37 -49,-27 -10,7 -25,-22 -22,-42 1,-9 -6,-12 -21,-10 -30,4 -38,46 -12,65 10,7 14,16 10,20 -4,5 -13,0 -20,-10 -18,-23 -23,-22 -40,12 -15,28 -15,29 12,34 15,3 43,17 62,30 19,14 36,26 37,26 2,1 12,-17 23,-39 z m -1608,-64 c 8,-7 24,-13 37,-12 35,2 47,-24 33,-71 -20,-65 -23,-66 -74,-38 -25,14 -53,23 -62,19 -28,-11 -13,56 22,99 18,21 26,21 44,3 z m 1682,-111 c 17,-54 14,-65 -15,-65 -18,0 -20,4 -14,30 5,23 3,30 -9,30 -10,0 -15,-8 -13,-21 3,-29 -17,-35 -29,-10 -6,13 -14,18 -22,13 -9,-7 -8,-14 8,-32 22,-25 18,-40 -10,-40 -14,0 -23,14 -34,54 -20,67 -20,68 2,65 32,-4 91,13 97,29 8,23 22,4 39,-53 z m -1749,-84 c 3,-5 -2,-16 -10,-24 -19,-20 -19,-37 0,-37 8,0 15,7 15,15 0,8 7,15 16,15 10,0 14,-6 11,-15 -8,-19 12,-30 26,-15 9,10 9,14 0,17 -15,5 -17,29 -4,37 5,4 17,3 26,0 14,-6 15,-15 10,-58 -8,-59 -18,-74 -39,-57 -8,7 -37,13 -65,13 -42,1 -50,4 -47,17 3,9 8,35 11,59 5,32 11,42 25,42 10,0 21,-4 25,-9 z m 1730,-35 c 46,-1 55,-9 55,-51 0,-26 -6,-32 -46,-49 -50,-20 -77,-43 -69,-57 4,-5 33,-9 66,-9 32,0 59,-3 59,-7 0,-5 -3,-18 -6,-31 -6,-19 -11,-22 -31,-17 -16,4 -22,2 -18,-5 3,-5 15,-10 26,-10 14,0 19,-7 19,-29 0,-40 -19,-49 -40,-21 l -18,23 -36,-21 c -48,-28 -56,-28 -56,6 0,33 14,57 28,48 14,-8 43,4 36,15 -3,5 -16,6 -29,3 -23,-6 -24,-5 -24,67 0,76 6,100 20,78 10,-17 21,-7 14,13 -4,10 -14,14 -26,11 -16,-5 -19,0 -19,27 0,30 2,32 28,24 15,-4 45,-8 67,-8 z M 4710,1296 c 0,-8 -4,-18 -10,-21 -13,-8 -13,-35 1,-35 6,0 13,9 16,20 6,23 23,27 23,6 0,-21 20,-30 33,-17 8,8 8,14 -1,23 -18,18 -14,38 7,38 19,0 31,-34 31,-89 0,-26 -1,-26 -75,-26 h -75 v 58 c 0,54 1,57 25,57 15,0 25,-6 25,-14 z m 2,-164 c -19,-6 -14,-34 6,-30 9,2 16,11 14,20 -4,23 25,30 31,7 6,-22 27,-26 27,-4 0,8 7,15 15,15 8,0 15,-8 15,-17 0,-10 3,-27 6,-39 5,-18 1,-20 -45,-21 -28,0 -58,-6 -67,-13 -21,-18 -32,-4 -40,57 -6,45 -4,52 12,55 21,4 45,-23 26,-30 z m 1722,-113 c 27,-21 36,-71 16,-84 -5,-3 -10,-15 -10,-26 0,-21 -12,-24 -40,-9 -23,12 -17,36 11,43 25,7 15,35 -17,43 -30,8 -44,-2 -44,-31 0,-24 -16,-42 -28,-31 -3,4 -6,23 -6,43 0,65 65,94 118,52 z M 4742,986 c -4,-34 21,-32 26,2 4,25 20,29 28,7 4,-8 10,-15 15,-15 5,0 9,7 9,15 0,27 28,16 39,-16 14,-41 15,-39 -11,-39 -28,0 -88,-22 -88,-32 0,-4 -6,-8 -13,-8 -16,0 -52,94 -42,110 4,6 14,10 23,8 12,-3 16,-12 14,-32 z m 153,-91 c 31,-30 32,-71 3,-102 -44,-47 -128,-18 -128,45 0,32 7,42 40,65 34,23 57,21 85,-8 z m 1477,-14 c 30,-27 32,-31 23,-67 -16,-64 -79,-79 -128,-29 -25,24 -21,72 8,100 32,33 57,31 97,-4 z m -65,-162 24,-9 -37,-45 c -40,-49 -46,-52 -64,-30 -14,17 -4,39 15,31 16,-6 28,21 14,30 -5,3 -16,0 -24,-6 -19,-16 -40,-3 -25,15 13,16 4,39 -11,30 -5,-4 -14,-3 -20,1 -7,4 0,17 17,35 l 28,29 29,-36 c 16,-19 41,-40 54,-45 z m -1318,45 c 12,-15 21,-35 21,-45 0,-26 -40,-67 -73,-75 -23,-5 -33,0 -62,32 -35,38 -35,38 -16,58 16,15 23,17 34,7 8,-6 13,-21 10,-31 -4,-15 0,-20 14,-20 41,0 61,57 23,67 -28,8 -25,33 4,33 15,0 33,-11 45,-26 z m 1161,-81 c 0,-9 18,-33 40,-54 l 39,-37 -45,-37 c -37,-31 -47,-35 -60,-24 -19,16 -13,32 15,39 28,6 27,25 -2,26 -39,2 -42,4 -23,19 18,14 18,15 -10,25 l -29,12 28,24 c 33,28 47,30 47,7 z M 5130,620 c 0,-5 -4,-12 -10,-15 -14,-9 -12,-37 3,-32 6,2 12,9 12,14 0,24 14,22 79,-11 61,-31 66,-35 51,-50 -9,-9 -14,-16 -12,-16 3,0 13,-3 23,-7 12,-4 15,-3 10,5 -14,24 4,32 42,18 20,-8 61,-20 90,-26 28,-7 52,-15 52,-18 0,-4 -7,-27 -15,-51 -9,-24 -13,-52 -10,-62 7,-22 3,-23 -65,-8 -43,9 -50,14 -50,35 0,27 12,31 34,9 8,-8 19,-15 25,-15 16,0 13,20 -4,26 -24,9 -19,37 5,29 14,-4 20,-2 20,9 0,19 -23,33 -28,18 -6,-19 -22,-14 -31,11 -8,21 -9,21 -45,-17 -20,-22 -36,-46 -36,-53 0,-16 -5,-16 -46,-1 l -32,11 4,75 4,74 -22,-14 c -13,-8 -32,-33 -43,-56 -20,-40 -20,-40 -43,-22 -27,22 -27,29 -4,46 16,12 15,13 -6,14 -13,0 -21,-4 -17,-9 11,-19 -15,-22 -40,-5 -31,20 -28,38 6,39 21,0 24,5 27,40 5,65 8,69 42,45 16,-12 30,-25 30,-30 z m 920,-15 c 0,-25 33,-85 47,-85 29,0 10,-27 -38,-54 -42,-23 -53,-26 -60,-15 -13,20 -5,34 20,35 27,2 35,9 26,24 -5,8 -10,8 -20,0 -23,-19 -39,-1 -20,20 19,21 12,42 -11,33 -8,-3 -12,-8 -10,-11 3,-3 1,-11 -5,-19 -9,-10 -15,-10 -25,-2 -24,20 -16,35 34,62 55,31 62,32 62,12 z m -114,-89 c 2,-17 13,-43 24,-59 12,-16 20,-30 18,-32 -6,-6 -111,-46 -113,-43 -2,2 -5,12 -7,23 -2,16 3,20 24,20 15,0 27,5 25,10 -1,6 -10,10 -19,9 -22,-1 -24,22 -3,33 10,6 11,13 4,23 -8,13 -12,11 -28,-9 -20,-26 -41,-21 -41,9 0,13 13,23 43,33 56,21 69,18 73,-17 z m -179,-72 c 1,-35 7,-60 15,-65 20,-12 -1,-26 -49,-32 -51,-6 -79,10 -70,42 3,11 1,21 -3,21 -5,0 -12,10 -15,21 -10,29 15,51 67,60 24,3 45,7 48,8 3,0 6,-24 7,-55 z m -223,30 c 9,-8 16,-24 16,-35 0,-11 5,-17 10,-14 6,3 7,17 4,31 -5,21 -3,24 22,24 h 29 v -70 -70 h -42 c -23,0 -48,3 -57,6 -18,7 -22,49 -6,59 6,4 5,13 -2,25 -7,10 -16,16 -20,14 -4,-3 -8,4 -8,15 0,17 11,28 32,30 4,1 14,-6 22,-15 z"
       id="path590"
       style="fill:#784421" />
    <path
       d="m 5584,2146 c -8,-22 -1,-59 13,-64 17,-5 27,22 19,53 -7,28 -24,33 -32,11 z"
       id="path592"
       style="fill:#784421" />
    <path
       d="m 5057,1950 c 3,-11 9,-17 15,-14 5,3 4,12 -3,20 -16,19 -18,18 -12,-6 z"
       id="path594"
       style="fill:#784421" />
    <path
       d="m 5579,1820 c -9,-5 -20,-21 -23,-35 -13,-50 31,-88 74,-65 29,15 23,54 -8,58 -21,3 -23,1 -17,-20 7,-21 6,-22 -9,-7 -33,31 11,72 54,49 25,-14 35,-52 20,-80 -20,-37 -70,-51 -162,-44 -74,6 -86,4 -108,-14 -19,-15 -25,-29 -25,-62 0,-51 30,-80 82,-80 28,0 43,8 72,40 20,22 46,40 57,40 26,0 54,-30 54,-56 0,-24 -27,-64 -42,-64 -6,0 -1,11 11,24 26,27 25,63 -1,80 -23,14 -52,-2 -56,-31 -4,-25 22,-37 38,-18 10,12 8,17 -11,24 -21,8 -22,10 -6,16 21,9 47,-11 47,-36 0,-10 -12,-26 -26,-36 -44,-31 -94,-75 -94,-83 0,-4 8,-16 18,-27 9,-10 14,-14 10,-9 -17,21 -7,55 21,75 42,30 52,26 14,-5 -38,-29 -41,-47 -13,-67 11,-8 17,-16 14,-19 -3,-3 3,-5 12,-4 10,0 24,-10 31,-24 13,-25 13,-25 13,-2 0,13 -11,33 -25,46 -14,13 -25,29 -25,36 0,7 20,31 45,54 37,35 45,49 45,78 0,74 -79,94 -134,33 -18,-19 -42,-35 -53,-35 -25,0 -49,27 -55,63 -7,38 15,46 118,39 82,-4 82,-4 118,29 46,43 55,85 26,122 -23,28 -68,36 -101,17 z m -165,-235 c 5,-22 4,-26 -4,-15 -5,8 -10,24 -10,34 0,26 6,18 14,-19 z"
       id="path596"
       style="fill:#784421" />
    <path
       d="m 5652,1615 c 42,-51 32,-95 -34,-157 l -40,-38 28,-33 c 16,-18 31,-29 33,-24 1,4 -4,16 -13,26 -22,24 -20,48 5,61 29,16 59,70 59,106 0,21 -9,38 -27,55 -18,15 -22,17 -11,4 z"
       id="path598"
       style="fill:#784421" />
    <path
       d="m 5505,1340 c -27,-7 -27,-8 -5,-8 14,0 39,4 55,8 27,7 27,8 5,8 -14,0 -38,-4 -55,-8 z"
       id="path600"
       style="fill:#784421" />
    <path
       d="m 5650,1340 c 0,-4 18,-10 41,-14 66,-11 129,-50 129,-81 0,-8 -11,-27 -25,-42 -14,-15 -25,-23 -24,-18 4,26 -4,35 -48,56 -55,27 -182,32 -245,11 -44,-16 -91,-60 -83,-80 5,-13 3,-13 -12,-1 -14,11 -15,12 -9,0 30,-48 195,-73 316,-47 94,20 90,20 90,-6 0,-16 -3,-19 -8,-10 -9,13 -76,8 -102,-8 -7,-4 -17,-34 -21,-65 -11,-81 -29,-98 -99,-91 -30,3 -65,6 -77,7 -28,1 -69,55 -100,128 -12,31 -23,49 -23,41 0,-8 13,-43 29,-77 25,-53 27,-63 15,-74 -23,-19 -16,-49 19,-84 41,-41 101,-58 182,-53 57,4 155,40 155,58 0,4 -21,-3 -47,-16 -64,-33 -170,-34 -233,-1 -49,24 -77,64 -67,91 6,15 11,13 39,-15 66,-66 148,-84 223,-50 40,18 125,101 125,121 0,6 4,9 9,6 5,-3 14,1 21,9 6,8 27,19 45,25 43,14 95,73 95,106 0,55 -46,92 -92,75 -18,-6 -26,-2 -43,22 -11,17 -34,39 -51,49 -34,20 -124,40 -124,28 z m 268,-173 c 3,-24 -6,-38 -55,-82 -31,-30 -59,-53 -60,-51 -8,8 41,134 59,149 29,24 52,18 56,-16 z m -180,3 c 15,-1 15,-2 2,-9 -8,-5 -26,-12 -38,-16 -24,-7 -24,-7 -6,20 10,15 20,23 22,16 2,-6 11,-11 20,-11 z m 27,-145 c -31,-83 -121,-134 -211,-120 -24,3 -53,15 -66,26 l -23,20 30,-15 c 114,-55 237,-4 268,111 6,24 13,39 15,33 2,-6 -3,-31 -13,-55 z"
       id="path602"
       style="fill:#784421" />
    <path
       d="m 5430,1320 c -8,-5 -10,-10 -5,-10 6,0 17,5 25,10 8,5 11,10 5,10 -5,0 -17,-5 -25,-10 z"
       id="path604"
       style="fill:#784421" />
    <path
       d="m 5368,1281 c -18,-16 -31,-31 -28,-33 3,-2 20,12 38,30 42,40 34,42 -10,3 z"
       id="path606"
       style="fill:#784421" />
    <path
       d="m 5342,1160 c 0,-14 2,-19 5,-12 2,6 2,18 0,25 -3,6 -5,1 -5,-13 z"
       id="path608"
       style="fill:#784421" />
    <path
       d="m 5263,1028 c -32,-36 -43,-63 -43,-108 0,-122 131,-207 336,-217 87,-5 111,-2 168,17 74,24 151,73 175,110 11,17 1,12 -33,-18 -69,-59 -151,-84 -281,-84 -79,0 -112,5 -158,22 -155,59 -223,177 -155,272 23,34 19,36 -9,6 z"
       id="path610"
       style="fill:#784421" />
    <path
       d="m 6283,1813 c -18,-7 -16,-23 2,-23 8,0 15,7 15,15 0,8 -1,15 -2,14 -2,0 -9,-3 -15,-6 z"
       id="path612"
       style="fill:#784421" />
    <path
       d="m 6230,1765 c 0,-8 7,-15 15,-15 8,0 15,7 15,15 0,8 -7,15 -15,15 -8,0 -15,-7 -15,-15 z"
       id="path614"
       style="fill:#784421" />
    <path
       d="m 4825,1741 c -7,-12 12,-24 25,-16 11,7 4,25 -10,25 -5,0 -11,-4 -15,-9 z"
       id="path616"
       style="fill:#784421" />
    <path
       d="m 6363,1683 c -18,-6 -16,-23 1,-23 17,0 30,16 19,23 -5,2 -14,2 -20,0 z"
       id="path618"
       style="fill:#784421" />
    <path
       d="m 4757,1604 c -8,-8 1,-24 14,-24 5,0 9,7 9,15 0,15 -12,20 -23,9 z"
       id="path620"
       style="fill:#784421" />
    <path
       d="m 4805,1581 c -3,-5 -1,-12 5,-16 12,-7 30,2 30,16 0,12 -27,12 -35,0 z"
       id="path622"
       style="fill:#784421" />
    <path
       d="m 6430,1370 c 0,-6 7,-10 15,-10 8,0 15,2 15,4 0,2 -7,6 -15,10 -8,3 -15,1 -15,-4 z"
       id="path624"
       style="fill:#784421" />
    <path
       d="m 4832,854 c -24,-16 -30,-44 -9,-44 20,0 57,30 57,46 0,18 -20,18 -48,-2 z"
       id="path626"
       style="fill:#784421" />
    <path
       d="m 6290,845 c 0,-8 11,-22 26,-31 20,-13 28,-14 37,-5 9,10 7,17 -12,32 -28,23 -51,25 -51,4 z"
       id="path628"
       style="fill:#784421" />
    <path
       d="m 5240,464 c 0,-8 5,-12 10,-9 6,3 10,10 10,16 0,5 -4,9 -10,9 -5,0 -10,-7 -10,-16 z"
       id="path630"
       style="fill:#784421" />
    <path
       d="m 5680,445 c 0,-8 7,-15 15,-15 8,0 15,7 15,15 0,8 -7,15 -15,15 -8,0 -15,-7 -15,-15 z"
       id="path632"
       style="fill:#784421" />
    <path
       d="m 5700,384 c 0,-8 5,-12 10,-9 6,3 10,10 10,16 0,5 -4,9 -10,9 -5,0 -10,-7 -10,-16 z"
       id="path634"
       style="fill:#784421" />
    <path
       d="m 5540,385 c 0,-8 5,-15 10,-15 6,0 10,7 10,15 0,8 -4,15 -10,15 -5,0 -10,-7 -10,-15 z"
       id="path636"
       style="fill:#784421" />
  </g>
</svg>
