<?xml version="1.0" encoding="UTF-8" standalone="no"?>
<svg
   version="1.0"
   width="282.40018pt"
   height="140.61853pt"
   viewBox="0 0 282.40018 140.61853"
   preserveAspectRatio="xMidYMid"
   id="svg748"
   sodipodi:docname="LogoKM.svg"
   inkscape:export-filename="5.svg"
   inkscape:export-xdpi="25.601177"
   inkscape:export-ydpi="25.601177"
   inkscape:version="1.2.1 (9c6d41e410, 2022-07-14)"
   xmlns:inkscape="http://www.inkscape.org/namespaces/inkscape"
   xmlns:sodipodi="http://sodipodi.sourceforge.net/DTD/sodipodi-0.dtd"
   xmlns="http://www.w3.org/2000/svg"
   xmlns:svg="http://www.w3.org/2000/svg">
  <defs
     id="defs752" />
  <sodipodi:namedview
     id="namedview750"
     pagecolor="#ffffff"
     bordercolor="#666666"
     borderopacity="1.0"
     inkscape:showpageshadow="2"
     inkscape:pageopacity="0.0"
     inkscape:pagecheckerboard="0"
     inkscape:deskcolor="#d1d1d1"
     inkscape:document-units="pt"
     showgrid="false"
     inkscape:zoom="1.3330356"
     inkscape:cx="395.71336"
     inkscape:cy="246.43003"
     inkscape:window-width="1920"
     inkscape:window-height="1001"
     inkscape:window-x="-9"
     inkscape:window-y="-9"
     inkscape:window-maximized="1"
     inkscape:current-layer="svg748" />
  <g
     transform="matrix(0.1,0,0,-0.1,-296.16187,418.50082)"
     fill="#000000"
     stroke="none"
     id="g746"
     style="fill:#784421">
    <path
       d="m 3600,4130 c -11,-11 -20,-28 -20,-38 0,-28 29,-62 54,-62 48,0 63,62 17,68 -20,3 -22,0 -16,-18 5,-16 3,-21 -6,-18 -22,7 -23,45 -1,57 44,24 91,-24 72,-73 -17,-45 -61,-59 -161,-51 -85,7 -89,6 -113,-19 -53,-52 -19,-136 55,-136 33,0 46,7 79,40 22,22 48,40 58,40 24,0 52,-30 52,-56 0,-24 -27,-64 -42,-64 -6,0 -2,10 10,23 27,29 28,49 1,73 -25,23 -54,9 -54,-27 0,-29 28,-33 33,-5 3,14 0,17 -12,13 -9,-4 -16,-2 -16,2 0,15 32,22 46,10 22,-18 16,-46 -12,-66 -67,-46 -97,-79 -90,-100 4,-12 13,-24 21,-27 13,-4 12,-1 -1,19 -16,24 -15,26 16,55 18,16 37,30 44,30 6,0 -4,-12 -21,-26 -38,-29 -41,-47 -13,-67 11,-8 17,-17 13,-21 -4,-4 0,-4 9,-1 12,5 21,-2 32,-22 13,-24 15,-25 16,-7 0,11 -11,31 -25,44 -14,13 -25,29 -25,36 0,7 20,33 45,57 51,51 59,93 25,127 -33,33 -74,26 -119,-20 -41,-41 -55,-48 -66,-30 -4,6 -13,9 -22,8 -8,-2 -20,4 -26,13 -11,18 -1,73 12,64 5,-3 11,0 13,7 3,8 32,11 95,9 89,-2 92,-1 127,30 30,26 36,38 36,70 0,48 -28,79 -70,79 -17,0 -39,-9 -50,-20 z"
       id="path532"
       style="fill:#784421" />
    <path
       d="m 3440,3916 c 0,-14 4,-27 8,-30 5,-3 6,8 4,25 -5,35 -12,38 -12,5 z"
       id="path534"
       style="fill:#784421" />
    <path
       d="m 3693,3915 c 7,-16 12,-36 11,-42 -1,-7 -2,-20 -3,-30 0,-9 -22,-35 -48,-59 l -46,-43 31,-36 c 32,-36 45,-36 17,1 -21,27 -18,43 10,66 54,42 70,109 35,149 l -21,24 z"
       id="path536"
       style="fill:#784421" />
    <path
       d="m 3545,3660 -40,-7 35,-1 c 19,-1 42,3 50,8 16,11 14,11 -45,0 z"
       id="path538"
       style="fill:#784421" />
    <path
       d="m 3740,3640 c 60,-17 110,-54 110,-81 0,-5 -16,-26 -37,-47 -20,-20 -29,-28 -19,-16 15,19 15,22 -2,37 -48,44 -191,63 -283,37 -42,-12 -92,-57 -85,-76 3,-8 -1,-11 -12,-8 -9,2 7,-7 36,-22 65,-31 171,-42 257,-24 96,19 100,19 103,-15 12,-102 -84,-204 -193,-205 -86,0 -185,84 -214,182 -7,22 -15,38 -17,35 -10,-10 36,-110 70,-152 88,-107 203,-114 306,-19 58,54 63,64 105,211 6,19 51,44 69,37 35,-13 18,-55 -46,-116 l -63,-59 55,31 c 73,41 74,41 93,70 24,34 21,73 -7,99 -25,24 -48,29 -83,17 -19,-6 -23,-4 -23,13 0,37 -97,92 -159,90 -16,0 0,-8 39,-19 z m 20,-160 c 0,-4 -11,-11 -24,-14 -13,-3 -32,-9 -43,-12 -10,-4 -2,4 17,18 33,24 50,27 50,8 z"
       id="path540"
       style="fill:#784421" />
    <path
       d="m 3424,3621 c -18,-11 -35,-25 -40,-33 -4,-8 0,-6 12,3 10,9 33,24 49,32 17,9 26,16 20,17 -5,0 -24,-9 -41,-19 z"
       id="path542"
       style="fill:#784421" />
    <path
       d="m 3372,3470 c 0,-14 2,-19 5,-12 2,6 2,18 0,25 -3,6 -5,1 -5,-13 z"
       id="path544"
       style="fill:#784421" />
    <path
       d="m 3730,3427 c -45,-12 -45,-13 -51,-62 -9,-73 -17,-93 -42,-101 -30,-10 -95,-6 -121,8 -19,9 -19,9 -6,-5 8,-8 30,-19 49,-26 112,-37 225,36 239,154 5,50 5,51 -68,32 z"
       id="path546"
       style="fill:#784421" />
    <path
       d="m 3293,3348 c -32,-36 -43,-63 -43,-110 0,-89 69,-158 198,-198 94,-29 237,-29 313,-1 71,27 142,74 165,109 14,21 8,18 -30,-15 -70,-62 -155,-88 -281,-87 -114,1 -175,18 -245,65 -94,64 -123,155 -72,227 27,37 25,42 -5,10 z"
       id="path548"
       style="fill:#784421" />
    <path
       d="m 3417,3284 c -28,-28 27,-101 92,-123 74,-24 198,-9 243,30 l 23,20 -33,-16 c -121,-59 -286,-24 -309,66 -5,17 -12,27 -16,23 z"
       id="path550"
       style="fill:#784421" />
    <path
       style="fill:#784421;fill-opacity:1;stroke:#784421;stroke-width:0.750167"
       d="m 493.18619,200.48227 c 0.51753,-2.16611 2.07507,-8.74883 3.4612,-14.62827 l 2.52024,-10.68989 h 3.64827 c 3.12809,0 3.59076,0.18719 3.24492,1.3128 -0.22184,0.72203 -0.8898,3.42264 -1.48435,6.00134 l -1.08101,4.68854 h 1.74545 c 1.21359,0 3.07916,-1.52059 6.12235,-4.99023 4.54368,-5.18038 7.55835,-7.01245 11.539,-7.01245 2.24061,0 2.31324,0.0978 1.8113,2.43805 -0.71331,3.32579 -0.91547,3.56329 -3.03305,3.56329 -1.26149,0 -3.1518,1.34628 -5.95706,4.24262 -2.26007,2.33344 -4.10921,4.35294 -4.10921,4.48779 0,0.13485 1.31424,2.39239 2.92053,5.01676 1.60629,2.62437 3.47163,5.83728 4.14519,7.1398 l 1.22465,2.36823 h -3.70444 -3.70445 l -3.46157,-6.00134 c -2.76422,-4.79235 -3.81346,-6.00134 -5.20831,-6.00134 -1.57527,0 -1.87405,0.58916 -3.04342,6.00134 l -1.29666,6.00134 h -3.62027 -3.62027 z"
       id="path715"
       transform="matrix(7.5,0,0,-7.5,224.25567,4700)" />
  </g>
  <text
     xml:space="preserve"
     style="font-style:italic;font-variant:normal;font-weight:bold;font-stretch:normal;font-size:31.1439px;line-height:1.25;font-family:sans-serif;-inkscape-font-specification:'sans-serif Bold Italic';fill:#552200;fill-opacity:1;stroke:none;stroke-width:0.778596"
     x="97.086784"
     y="103.65057"
     id="text245"
     transform="scale(1.0182589,0.98206851)"><tspan
       sodipodi:role="line"
       id="tspan243"
       style="font-style:italic;font-variant:normal;font-weight:bold;font-stretch:normal;font-family:sans-serif;-inkscape-font-specification:'sans-serif Bold Italic';fill:#552200;fill-opacity:1;stroke-width:0.778596"
       x="97.086784"
       y="103.65057">Кофемэн</tspan></text>
  <rect
     style="fill:#552200;fill-opacity:0.0614525;stroke:#782121;stroke-width:1.65;stroke-linejoin:miter;stroke-dasharray:none;stroke-opacity:1"
     id="rect1702"
     width="280.75021"
     height="138.96854"
     x="0.82501143"
     y="0.82500029"
     ry="69.484268" />
  <g
     transform="matrix(-0.02168028,0,0,-0.01792661,275.34199,89.514066)"
     fill="#000000"
     stroke="none"
     id="g5230"
     style="fill:#784421">
    <path
       d="m 4389,4389 c -59,-5 -153,-15 -209,-24 -57,-8 -111,-15 -119,-16 -9,0 32,-11 91,-24 59,-13 232,-62 385,-109 504,-154 629,-179 900,-180 179,-1 193,0 220,20 21,16 29,31 31,62 3,35 -2,46 -34,82 -68,75 -192,124 -405,159 -237,39 -586,51 -860,30 z"
       id="path5226"
       style="fill:#784421" />
    <path
       d="m 3330,4305 c -67,-19 -124,-57 -166,-111 -45,-60 -115,-333 -189,-734 l -32,-175 -59,-7 c -32,-3 -106,-11 -164,-18 -265,-28 -554,-89 -720,-150 -195,-72 -324,-169 -349,-263 -59,-212 171,-358 1104,-700 536,-197 1476,-527 1639,-576 596,-181 1076,-263 1456,-248 245,10 403,46 562,129 384,199 461,699 168,1089 -147,196 -415,382 -720,499 -47,18 -89,36 -93,40 -8,7 -36,652 -37,829 v 75 l -31,-32 c -61,-62 -180,-76 -406,-47 -248,32 -382,66 -776,194 -522,170 -703,211 -962,217 -130,3 -183,0 -225,-11 z M 3120,3140 c 411,-161 947,-323 1323,-400 252,-51 373,-64 602,-64 313,0 505,38 613,121 39,29 91,107 93,137 1,15 4,12 9,-9 4,-16 8,-102 9,-190 1,-149 -1,-163 -23,-212 -48,-102 -170,-185 -326,-221 -117,-27 -578,-23 -796,6 -277,38 -533,95 -887,198 -448,130 -766,253 -824,316 -22,24 -21,104 2,271 8,59 15,110 15,114 0,7 13,3 190,-67 z"
       id="path5228"
       style="fill:#784421" />
  </g>
</svg>
